HIERARCHY
ROOT Hips
{
	OFFSET -0.001795 -0.223333 0.028219
	CHANNELS 6 Xposition Yposition Zposition Zrotation Yrotation Xrotation 
	JOINT LeftUpLeg
	{
		OFFSET 0.069520 -0.091406 -0.006815
		CHANNELS 3 Zrotation Yrotation Xrotation
		JOINT LeftLeg
		{
			OFFSET 0.034277 -0.375199 -0.004496
			CHANNELS 3 Zrotation Yrotation Xrotation
			JOINT LeftFoot
			{
				OFFSET -0.013596 -0.397961 -0.043693
				CHANNELS 3 Zrotation Yrotation Xrotation
				JOINT LeftToe
				{
					OFFSET 0.026358 -0.055791 0.119288
					CHANNELS 3 Zrotation Yrotation Xrotation
					End Site
					{
						OFFSET 0.000000 0.000000 0.000000
					}
				}
			}
		}
	}
	JOINT RightUpLeg
	{
		OFFSET -0.067670 -0.090522 -0.004320
		CHANNELS 3 Zrotation Yrotation Xrotation
		JOINT RightLeg
		{
			OFFSET -0.038290 -0.382569 -0.008850
			CHANNELS 3 Zrotation Yrotation Xrotation
			JOINT RightFoot
			{
				OFFSET 0.015774 -0.398415 -0.042312
				CHANNELS 3 Zrotation Yrotation Xrotation
				JOINT RightToe
				{
					OFFSET -0.025372 -0.048144 0.123348
					CHANNELS 3 Zrotation Yrotation Xrotation
					End Site
					{
						OFFSET 0.000000 0.000000 0.000000
					}
				}
			}
		}
	}
	JOINT Spine
	{
		OFFSET -0.002533 0.108963 -0.026696
		CHANNELS 3 Zrotation Yrotation Xrotation
		JOINT Spine1
		{
			OFFSET 0.005487 0.135180 0.001092
			CHANNELS 3 Zrotation Yrotation Xrotation
			JOINT Spine2
			{
				OFFSET 0.001457 0.052922 0.025425
				CHANNELS 3 Zrotation Yrotation Xrotation
				JOINT Neck
				{
					OFFSET -0.002778 0.213870 -0.042857
					CHANNELS 3 Zrotation Yrotation Xrotation
					JOINT Head
					{
						OFFSET 0.005152 0.064970 0.051349
						CHANNELS 3 Zrotation Yrotation Xrotation
						End Site
						{
							OFFSET 0.000000 0.000000 0.000000
						}
					}
				}
				JOINT LeftShoulder
				{
					OFFSET 0.078845 0.121749 -0.034090
					CHANNELS 3 Zrotation Yrotation Xrotation
					JOINT LeftArm
					{
						OFFSET 0.090977 0.030469 -0.008868
						CHANNELS 3 Zrotation Yrotation Xrotation
						JOINT LeftForeArm
						{
							OFFSET 0.259612 -0.012772 -0.027456
							CHANNELS 3 Zrotation Yrotation Xrotation
							JOINT LeftHand
							{
								OFFSET 0.249234 0.008986 -0.001171
								CHANNELS 3 Zrotation Yrotation Xrotation
								End Site
								{
									OFFSET 0.000000 0.000000 0.000000
								}
							}
						}
					}
				}
				JOINT RightShoulder
				{
					OFFSET -0.081759 0.118833 -0.038615
					CHANNELS 3 Zrotation Yrotation Xrotation
					JOINT RightArm
					{
						OFFSET -0.096012 0.032551 -0.009143
						CHANNELS 3 Zrotation Yrotation Xrotation
						JOINT RightForeArm
						{
							OFFSET -0.253742 -0.013329 -0.021401
							CHANNELS 3 Zrotation Yrotation Xrotation
							JOINT RightHand
							{
								OFFSET -0.255298 0.007772 -0.005559
								CHANNELS 3 Zrotation Yrotation Xrotation
								End Site
								{
									OFFSET 0.000000 0.000000 0.000000
								}
							}
						}
					}
				}
			}
		}
	}
}
MOTION
Frames: 7
Frame Time: 0.050000
0.000000 0.954456 0.000000 -2.813199 -15.265391 -3.965344 -5.250351 0.211044 1.908815 3.299758 -0.500936 1.064867 23.766678 42.273024 10.427737 0.000000 0.000000 0.000000 -0.276500 1.867625 -16.494918 8.971579 0.862567 47.110956 -4.340428 -13.232418 7.733965 0.000000 0.000000 0.000000 1.143145 -0.091488 1.792374 -2.199823 1.020812 -0.709649 3.112500 -3.946871 8.339281 1.999344 -1.441828 -16.268668 0.000000 0.000000 0.000000 -30.635703 -0.439516 2.492357 -43.947204 -7.922531 -4.365174 2.336914 -38.818599 2.026972 0.000000 0.000000 0.000000 23.610511 2.615618 -4.864432 49.846246 -11.030792 -8.523725 11.036208 32.421213 3.019835 0.000000 0.000000 0.000000 
-0.006427 0.954324 0.026725 -3.673527 -12.789474 -3.679199 -3.192335 0.489769 3.992736 1.624619 -0.225075 0.229747 21.625650 40.397671 6.945657 0.000000 0.000000 0.000000 -1.042311 2.307237 -20.644605 8.660310 -0.012262 41.158026 -3.657371 -12.427085 9.752535 0.000000 0.000000 0.000000 0.563575 -0.008025 0.134964 -0.618284 0.324057 1.436369 1.865876 -4.109053 7.914828 4.588309 -2.744658 -17.467154 0.000000 0.000000 0.000000 -29.024830 -0.470661 1.883510 -46.776661 -7.532994 -4.413877 3.763065 -41.043340 1.719160 0.000000 0.000000 0.000000 23.864662 1.979489 -4.812084 50.496578 -10.364247 -8.431316 12.072309 32.745312 3.432549 0.000000 0.000000 0.000000 
-0.013196 0.954146 0.052488 -3.759312 -9.845916 -3.653504 -3.346635 0.706202 5.547505 2.769246 -0.363995 0.216250 19.898621 38.102472 4.931827 0.000000 0.000000 0.000000 0.832770 2.499354 -20.566006 3.671981 0.899822 30.317181 -1.871917 -8.734392 9.278874 0.000000 0.000000 0.000000 0.436676 -0.012662 0.254228 -1.096765 0.521915 -0.012657 2.644576 -4.062038 9.293619 4.052951 -2.220345 -19.125028 0.000000 0.000000 0.000000 -29.315681 -1.336567 1.999753 -47.612711 -6.310984 -4.899921 3.706572 -43.543310 1.781602 0.000000 0.000000 0.000000 22.052211 1.991026 -3.838053 52.968075 -10.412289 -9.423530 12.297278 36.003341 4.046608 0.000000 0.000000 0.000000 
-0.020131 0.953758 0.077175 -3.854530 -6.682894 -3.238069 -2.251729 0.793366 6.696504 2.105573 -0.273558 0.325025 17.773196 35.173572 1.915972 0.000000 0.000000 0.000000 0.403945 2.381277 -20.831119 2.545482 0.431779 20.226173 0.788512 -3.602812 10.284370 0.000000 0.000000 0.000000 -0.258252 0.022491 -0.584413 0.147420 -0.070144 -1.029963 1.344791 -4.143707 9.938866 5.737628 -2.890249 -20.389444 0.000000 0.000000 0.000000 -28.298072 -1.669255 1.530097 -48.778884 -5.419425 -5.120641 2.308756 -43.317079 2.142864 0.000000 0.000000 0.000000 24.056916 2.126592 -3.587286 51.180005 -9.306438 -8.599916 12.443239 38.835886 4.675229 0.000000 0.000000 0.000000 
-0.026862 0.952091 0.101363 -3.744066 -5.253594 -2.465501 -2.082565 0.763747 6.573981 2.635901 -0.426873 2.075258 16.839267 33.848541 0.219289 0.000000 0.000000 0.000000 1.334546 2.429849 -20.401537 1.235759 0.311931 11.720233 5.078347 3.623627 13.043002 0.000000 0.000000 0.000000 -0.493738 0.049549 -1.271947 -0.029633 0.017262 -0.689789 1.303343 -3.322480 9.315841 6.200436 -3.065533 -19.331798 0.000000 0.000000 0.000000 -27.180131 -2.347962 1.324797 -50.859112 -3.078058 -5.938995 2.282630 -41.782260 1.856161 0.000000 0.000000 0.000000 24.860227 3.130921 -2.593359 49.968104 -6.700129 -7.334189 10.722931 43.994851 4.917129 0.000000 0.000000 0.000000 
-0.033594 0.949637 0.125215 -3.190973 -2.451785 -2.288200 -1.780820 0.731894 6.604928 2.929846 -0.603679 4.589962 15.077992 30.807527 -2.509975 0.000000 0.000000 0.000000 1.027242 2.257264 -20.037824 1.028509 0.207186 9.246411 7.064418 6.494385 15.376211 0.000000 0.000000 0.000000 -0.750623 0.064213 -1.778372 -0.480497 0.238598 -0.545009 0.908319 -3.193700 9.568228 6.615821 -3.058952 -19.850320 0.000000 0.000000 0.000000 -27.571035 -2.544676 0.783677 -50.131505 -2.222077 -6.036966 0.880817 -40.530842 2.040668 0.000000 0.000000 0.000000 25.171714 5.735147 -0.434991 49.097115 -1.548369 -5.341035 2.643950 51.036819 2.421768 0.000000 0.000000 0.000000 
-0.040501 0.948506 0.148355 -2.571617 0.341255 -2.297808 -1.274142 0.697142 6.783804 2.808884 -0.696791 6.456747 13.914334 28.248949 -3.997832 0.000000 0.000000 0.000000 0.937650 2.049411 -18.998332 0.704457 0.242340 9.642893 7.275490 7.402036 15.231797 0.000000 0.000000 0.000000 -0.957914 0.067107 -2.053106 -0.748766 0.351994 0.502146 0.800462 -1.852270 8.471812 7.666898 -3.369110 -19.368672 0.000000 0.000000 0.000000 -27.074650 -3.829063 0.496263 -49.752082 -1.245632 -5.976611 -0.019599 -37.878759 1.831479 0.000000 0.000000 0.000000 23.601637 7.305325 1.614660 48.364669 6.116202 -2.533221 -6.424374 54.850810 -1.370517 0.000000 0.000000 0.000000 
